<?xml version="1.0" encoding="UTF-8" standalone="no"?><!-- Generator: Gravit.io --><svg xmlns="http://www.w3.org/2000/svg" xmlns:xlink="http://www.w3.org/1999/xlink" style="isolation:isolate" viewBox="0 0 1200 630" width="1200pt" height="630pt"><defs><clipPath id="_clipPath_1577bRQsgE4uQNwX0vvMa4hY2n6JRkHX"><rect width="1200" height="630"/></clipPath></defs><g clip-path="url(#_clipPath_1577bRQsgE4uQNwX0vvMa4hY2n6JRkHX)"><rect width="1200" height="630" style="fill:rgb(17,24,39)" fill-opacity="0"/><rect x="0" y="0" width="1200" height="630" transform="matrix(1,0,0,1,0,0)" fill="rgb(17,24,39)"/><g><path d=" M 345 315 L 345 396.848 L 364.173 385.724 L 364.173 362.588 L 364.173 315 L 345 315 Z  M 449.293 315 L 379.211 354.181 L 379.211 377.002 L 486.088 315 L 449.293 315 Z " fill="rgb(19,58,212)"/><path d=" M 424.86 314.891 L 379.211 340.411 L 379.211 289.371 L 424.86 314.891 Z " fill="rgb(4,162,255)"/><path d=" M 345 233.152 L 345 315 L 364.173 315 L 364.173 284.821 L 364.173 267.194 L 449.489 314.89 L 449.293 315 L 486.088 315 L 486.091 314.999 L 345 233.152 Z " fill="rgb(134,0,239)"/></g><path d=" M 834.952 362.182 L 834.952 362.182 L 834.952 362.182 Q 834.952 364.457 833.407 365.669 L 833.407 365.669 L 833.407 365.669 Q 831.862 366.882 829.029 366.882 L 829.029 366.882 L 826.604 366.882 L 826.604 373.363 L 825.51 373.363 L 825.51 357.675 L 829.351 357.675 L 829.351 357.675 Q 834.952 357.675 834.952 362.182 Z  M 826.604 358.662 L 826.604 365.937 L 828.761 365.937 L 828.761 365.937 Q 831.411 365.937 832.592 365.063 L 832.592 365.063 L 832.592 365.063 Q 833.772 364.188 833.772 362.225 L 833.772 362.225 L 833.772 362.225 Q 833.772 360.411 832.656 359.537 L 832.656 359.537 L 832.656 359.537 Q 831.54 358.662 829.201 358.662 L 829.201 358.662 L 826.604 358.662 Z  M 847.743 367.515 L 847.743 367.515 L 847.743 367.515 Q 847.743 370.369 846.358 371.973 L 846.358 371.973 L 846.358 371.973 Q 844.974 373.577 842.538 373.577 L 842.538 373.577 L 842.538 373.577 Q 841.004 373.577 839.834 372.837 L 839.834 372.837 L 839.834 372.837 Q 838.665 372.097 838.042 370.712 L 838.042 370.712 L 838.042 370.712 Q 837.42 369.328 837.42 367.515 L 837.42 367.515 L 837.42 367.515 Q 837.42 364.661 838.804 363.067 L 838.804 363.067 L 838.804 363.067 Q 840.188 361.474 842.603 361.474 L 842.603 361.474 L 842.603 361.474 Q 845.006 361.474 846.374 363.089 L 846.374 363.089 L 846.374 363.089 Q 847.743 364.704 847.743 367.515 Z  M 838.536 367.515 L 838.536 367.515 L 838.536 367.515 Q 838.536 369.918 839.593 371.265 L 839.593 371.265 L 839.593 371.265 Q 840.65 372.612 842.581 372.612 L 842.581 372.612 L 842.581 372.612 Q 844.513 372.612 845.57 371.265 L 845.57 371.265 L 845.57 371.265 Q 846.627 369.918 846.627 367.515 L 846.627 367.515 L 846.627 367.515 Q 846.627 365.101 845.559 363.77 L 845.559 363.77 L 845.559 363.77 Q 844.491 362.439 842.56 362.439 L 842.56 362.439 L 842.56 362.439 Q 840.628 362.439 839.582 363.765 L 839.582 363.765 L 839.582 363.765 Q 838.536 365.09 838.536 367.515 Z  M 861.413 373.363 L 860.297 373.363 L 857.743 365.562 L 857.743 365.562 Q 857.496 364.768 857.11 363.233 L 857.11 363.233 L 857.046 363.233 L 856.82 364.028 L 856.337 365.583 L 853.741 373.363 L 852.689 373.363 L 849.352 361.699 L 850.489 361.699 L 852.356 368.459 L 852.356 368.459 Q 853.011 370.97 853.215 372.15 L 853.215 372.15 L 853.279 372.15 L 853.279 372.15 Q 853.912 369.639 854.202 368.813 L 854.202 368.813 L 856.606 361.699 L 857.571 361.699 L 859.857 368.792 L 859.857 368.792 Q 860.629 371.313 860.801 372.129 L 860.801 372.129 L 860.866 372.129 L 860.866 372.129 Q 860.951 371.431 861.724 368.395 L 861.724 368.395 L 863.505 361.699 L 864.578 361.699 L 861.413 373.363 Z  M 871.574 373.577 L 871.574 373.577 L 871.574 373.577 Q 869.031 373.577 867.609 372.011 L 867.609 372.011 L 867.609 372.011 Q 866.188 370.444 866.188 367.622 L 866.188 367.622 L 866.188 367.622 Q 866.188 364.832 867.561 363.153 L 867.561 363.153 L 867.561 363.153 Q 868.935 361.474 871.263 361.474 L 871.263 361.474 L 871.263 361.474 Q 873.323 361.474 874.514 362.912 L 874.514 362.912 L 874.514 362.912 Q 875.705 364.349 875.705 366.817 L 875.705 366.817 L 875.705 367.676 L 867.304 367.676 L 867.304 367.676 Q 867.325 370.079 868.425 371.345 L 868.425 371.345 L 868.425 371.345 Q 869.525 372.612 871.574 372.612 L 871.574 372.612 L 871.574 372.612 Q 872.572 372.612 873.329 372.472 L 873.329 372.472 L 873.329 372.472 Q 874.085 372.333 875.244 371.871 L 875.244 371.871 L 875.244 372.837 L 875.244 372.837 Q 874.257 373.266 873.42 373.422 L 873.42 373.422 L 873.42 373.422 Q 872.583 373.577 871.574 373.577 Z  M 871.263 362.418 L 871.263 362.418 L 871.263 362.418 Q 869.578 362.418 868.559 363.529 L 868.559 363.529 L 868.559 363.529 Q 867.54 364.639 867.368 366.732 L 867.368 366.732 L 874.579 366.732 L 874.579 366.732 Q 874.579 364.704 873.699 363.561 L 873.699 363.561 L 873.699 363.561 Q 872.819 362.418 871.263 362.418 Z  M 883.517 361.474 L 883.517 361.474 L 883.517 361.474 Q 884.257 361.474 885.105 361.624 L 885.105 361.624 L 884.901 362.643 L 884.901 362.643 Q 884.171 362.461 883.388 362.461 L 883.388 362.461 L 883.388 362.461 Q 881.897 362.461 880.942 363.727 L 880.942 363.727 L 880.942 363.727 Q 879.987 364.993 879.987 366.925 L 879.987 366.925 L 879.987 373.363 L 878.924 373.363 L 878.924 361.699 L 879.826 361.699 L 879.933 363.802 L 880.008 363.802 L 880.008 363.802 Q 880.727 362.515 881.543 361.994 L 881.543 361.994 L 881.543 361.994 Q 882.358 361.474 883.517 361.474 Z  M 887.262 372.526 L 887.262 372.526 L 887.262 372.526 Q 887.262 371.474 888.12 371.474 L 888.12 371.474 L 888.12 371.474 Q 889 371.474 889 372.526 L 889 372.526 L 889 372.526 Q 889 373.577 888.12 373.577 L 888.12 373.577 L 888.12 373.577 Q 887.262 373.577 887.262 372.526 Z  M 788.791 373.363 L 787.675 373.363 L 785.121 365.562 L 785.121 365.562 Q 784.875 364.768 784.488 363.233 L 784.488 363.233 L 784.424 363.233 L 784.199 364.028 L 783.716 365.583 L 781.119 373.363 L 780.067 373.363 L 776.73 361.699 L 777.868 361.699 L 779.735 368.459 L 779.735 368.459 Q 780.389 370.97 780.593 372.15 L 780.593 372.15 L 780.658 372.15 L 780.658 372.15 Q 781.291 369.639 781.58 368.813 L 781.58 368.813 L 783.984 361.699 L 784.95 361.699 L 787.235 368.792 L 787.235 368.792 Q 788.008 371.313 788.179 372.129 L 788.179 372.129 L 788.244 372.129 L 788.244 372.129 Q 788.33 371.431 789.102 368.395 L 789.102 368.395 L 790.883 361.699 L 791.956 361.699 L 788.791 373.363 Z  M 795.304 361.699 L 795.304 373.363 L 794.242 373.363 L 794.242 361.699 L 795.304 361.699 Z  M 794.092 358.459 L 794.092 358.459 L 794.092 358.459 Q 794.092 357.428 794.768 357.428 L 794.768 357.428 L 794.768 357.428 Q 795.1 357.428 795.288 357.697 L 795.288 357.697 L 795.288 357.697 Q 795.476 357.965 795.476 358.459 L 795.476 358.459 L 795.476 358.459 Q 795.476 358.941 795.288 359.22 L 795.288 359.22 L 795.288 359.22 Q 795.1 359.499 794.768 359.499 L 794.768 359.499 L 794.768 359.499 Q 794.092 359.499 794.092 358.459 Z  M 802.29 372.633 L 802.29 372.633 L 802.29 372.633 Q 803.298 372.633 804.049 372.461 L 804.049 372.461 L 804.049 373.32 L 804.049 373.32 Q 803.277 373.577 802.268 373.577 L 802.268 373.577 L 802.268 373.577 Q 800.723 373.577 799.988 372.751 L 799.988 372.751 L 799.988 372.751 Q 799.253 371.925 799.253 370.154 L 799.253 370.154 L 799.253 362.622 L 797.525 362.622 L 797.525 362 L 799.253 361.517 L 799.789 358.877 L 800.337 358.877 L 800.337 361.699 L 803.76 361.699 L 803.76 362.622 L 800.337 362.622 L 800.337 370.004 L 800.337 370.004 Q 800.337 371.345 800.809 371.989 L 800.809 371.989 L 800.809 371.989 Q 801.281 372.633 802.29 372.633 Z  M 815.756 373.363 L 814.704 373.363 L 814.704 365.798 L 814.704 365.798 Q 814.704 364.038 813.964 363.239 L 813.964 363.239 L 813.964 363.239 Q 813.224 362.439 811.668 362.439 L 811.668 362.439 L 811.668 362.439 Q 809.575 362.439 808.604 363.496 L 808.604 363.496 L 808.604 363.496 Q 807.633 364.553 807.633 366.925 L 807.633 366.925 L 807.633 373.363 L 806.571 373.363 L 806.571 356.667 L 807.633 356.667 L 807.633 361.978 L 807.58 363.47 L 807.655 363.47 L 807.655 363.47 Q 808.309 362.418 809.307 361.946 L 809.307 361.946 L 809.307 361.946 Q 810.305 361.474 811.786 361.474 L 811.786 361.474 L 811.786 361.474 Q 815.756 361.474 815.756 365.734 L 815.756 365.734 L 815.756 373.363 Z  M 723.155 373.363 L 723.155 357.675 L 727.457 357.675 L 727.457 357.675 Q 730.365 357.675 731.728 358.662 L 731.728 358.662 L 731.728 358.662 Q 733.091 359.65 733.091 361.645 L 733.091 361.645 L 733.091 361.645 Q 733.091 363.008 732.259 363.915 L 732.259 363.915 L 732.259 363.915 Q 731.428 364.822 729.829 365.079 L 729.829 365.079 L 729.829 365.143 L 729.829 365.143 Q 731.707 365.422 732.592 366.329 L 732.592 366.329 L 732.592 366.329 Q 733.477 367.236 733.477 368.856 L 733.477 368.856 L 733.477 368.856 Q 733.477 371.024 732.039 372.193 L 732.039 372.193 L 732.039 372.193 Q 730.601 373.363 727.962 373.363 L 727.962 373.363 L 723.155 373.363 Z  M 724.249 358.641 L 724.249 364.661 L 727.704 364.661 L 727.704 364.661 Q 729.915 364.661 730.918 363.926 L 730.918 363.926 L 730.918 363.926 Q 731.921 363.191 731.921 361.624 L 731.921 361.624 L 731.921 361.624 Q 731.921 360.057 730.789 359.349 L 730.789 359.349 L 730.789 359.349 Q 729.657 358.641 727.414 358.641 L 727.414 358.641 L 724.249 358.641 Z  M 727.704 365.626 L 724.249 365.626 L 724.249 372.397 L 727.94 372.397 L 727.94 372.397 Q 732.297 372.397 732.297 368.856 L 732.297 368.856 L 732.297 368.856 Q 732.297 365.626 727.704 365.626 L 727.704 365.626 Z  M 736.535 361.699 L 737.587 361.699 L 737.587 369.253 L 737.587 369.253 Q 737.587 371.013 738.327 371.812 L 738.327 371.812 L 738.327 371.812 Q 739.067 372.612 740.623 372.612 L 740.623 372.612 L 740.623 372.612 Q 742.705 372.612 743.687 371.56 L 743.687 371.56 L 743.687 371.56 Q 744.669 370.509 744.669 368.137 L 744.669 368.137 L 744.669 361.699 L 745.72 361.699 L 745.72 373.363 L 744.819 373.363 L 744.626 371.753 L 744.561 371.753 L 744.561 371.753 Q 743.424 373.577 740.516 373.577 L 740.516 373.577 L 740.516 373.577 Q 736.535 373.577 736.535 369.317 L 736.535 369.317 L 736.535 361.699 Z  M 750.688 361.699 L 750.688 373.363 L 749.626 373.363 L 749.626 361.699 L 750.688 361.699 Z  M 749.476 358.459 L 749.476 358.459 L 749.476 358.459 Q 749.476 357.428 750.152 357.428 L 750.152 357.428 L 750.152 357.428 Q 750.484 357.428 750.672 357.697 L 750.672 357.697 L 750.672 357.697 Q 750.86 357.965 750.86 358.459 L 750.86 358.459 L 750.86 358.459 Q 750.86 358.941 750.672 359.22 L 750.672 359.22 L 750.672 359.22 Q 750.484 359.499 750.152 359.499 L 750.152 359.499 L 750.152 359.499 Q 749.476 359.499 749.476 358.459 Z  M 755.656 356.667 L 755.656 373.363 L 754.594 373.363 L 754.594 356.667 L 755.656 356.667 Z  M 763.833 361.474 L 763.833 361.474 L 763.833 361.474 Q 765.099 361.474 766.022 361.935 L 766.022 361.935 L 766.022 361.935 Q 766.944 362.397 767.674 363.512 L 767.674 363.512 L 767.738 363.512 L 767.738 363.512 Q 767.674 362.16 767.674 360.862 L 767.674 360.862 L 767.674 356.667 L 768.726 356.667 L 768.726 373.363 L 768.028 373.363 L 767.76 371.582 L 767.674 371.582 L 767.674 371.582 Q 766.344 373.577 763.854 373.577 L 763.854 373.577 L 763.854 373.577 Q 761.44 373.577 760.163 372.075 L 760.163 372.075 L 760.163 372.075 Q 758.886 370.573 758.886 367.697 L 758.886 367.697 L 758.886 367.697 Q 758.886 364.671 760.152 363.073 L 760.152 363.073 L 760.152 363.073 Q 761.418 361.474 763.833 361.474 Z  M 763.833 362.439 L 763.833 362.439 L 763.833 362.439 Q 761.923 362.439 760.962 363.781 L 760.962 363.781 L 760.962 363.781 Q 760.002 365.122 760.002 367.676 L 760.002 367.676 L 760.002 367.676 Q 760.002 372.633 763.854 372.633 L 763.854 372.633 L 763.854 372.633 Q 765.828 372.633 766.751 371.485 L 766.751 371.485 L 766.751 371.485 Q 767.674 370.337 767.674 367.697 L 767.674 367.697 L 767.674 367.515 L 767.674 367.515 Q 767.674 364.811 766.767 363.625 L 766.767 363.625 L 766.767 363.625 Q 765.861 362.439 763.833 362.439 Z  M 624.759 366.356 L 624.759 373.363 L 623.665 373.363 L 623.665 357.675 L 632.259 357.675 L 632.259 358.684 L 624.759 358.684 L 624.759 365.337 L 631.841 365.337 L 631.841 366.356 L 624.759 366.356 Z  M 639.019 361.474 L 639.019 361.474 L 639.019 361.474 Q 639.76 361.474 640.607 361.624 L 640.607 361.624 L 640.404 362.643 L 640.404 362.643 Q 639.674 362.461 638.891 362.461 L 638.891 362.461 L 638.891 362.461 Q 637.399 362.461 636.444 363.727 L 636.444 363.727 L 636.444 363.727 Q 635.489 364.993 635.489 366.925 L 635.489 366.925 L 635.489 373.363 L 634.427 373.363 L 634.427 361.699 L 635.328 361.699 L 635.436 363.802 L 635.511 363.802 L 635.511 363.802 Q 636.23 362.515 637.045 361.994 L 637.045 361.994 L 637.045 361.994 Q 637.861 361.474 639.019 361.474 Z  M 647.689 373.577 L 647.689 373.577 L 647.689 373.577 Q 645.146 373.577 643.725 372.011 L 643.725 372.011 L 643.725 372.011 Q 642.303 370.444 642.303 367.622 L 642.303 367.622 L 642.303 367.622 Q 642.303 364.832 643.676 363.153 L 643.676 363.153 L 643.676 363.153 Q 645.05 361.474 647.378 361.474 L 647.378 361.474 L 647.378 361.474 Q 649.438 361.474 650.629 362.912 L 650.629 362.912 L 650.629 362.912 Q 651.82 364.349 651.82 366.817 L 651.82 366.817 L 651.82 367.676 L 643.419 367.676 L 643.419 367.676 Q 643.44 370.079 644.54 371.345 L 644.54 371.345 L 644.54 371.345 Q 645.64 372.612 647.689 372.612 L 647.689 372.612 L 647.689 372.612 Q 648.687 372.612 649.444 372.472 L 649.444 372.472 L 649.444 372.472 Q 650.2 372.333 651.359 371.871 L 651.359 371.871 L 651.359 372.837 L 651.359 372.837 Q 650.372 373.266 649.535 373.422 L 649.535 373.422 L 649.535 373.422 Q 648.698 373.577 647.689 373.577 Z  M 647.378 362.418 L 647.378 362.418 L 647.378 362.418 Q 645.694 362.418 644.674 363.529 L 644.674 363.529 L 644.674 363.529 Q 643.655 364.639 643.483 366.732 L 643.483 366.732 L 650.694 366.732 L 650.694 366.732 Q 650.694 364.704 649.814 363.561 L 649.814 363.561 L 649.814 363.561 Q 648.934 362.418 647.378 362.418 Z  M 659.75 373.577 L 659.75 373.577 L 659.75 373.577 Q 657.207 373.577 655.785 372.011 L 655.785 372.011 L 655.785 372.011 Q 654.364 370.444 654.364 367.622 L 654.364 367.622 L 654.364 367.622 Q 654.364 364.832 655.737 363.153 L 655.737 363.153 L 655.737 363.153 Q 657.11 361.474 659.439 361.474 L 659.439 361.474 L 659.439 361.474 Q 661.499 361.474 662.69 362.912 L 662.69 362.912 L 662.69 362.912 Q 663.881 364.349 663.881 366.817 L 663.881 366.817 L 663.881 367.676 L 655.479 367.676 L 655.479 367.676 Q 655.501 370.079 656.601 371.345 L 656.601 371.345 L 656.601 371.345 Q 657.701 372.612 659.75 372.612 L 659.75 372.612 L 659.75 372.612 Q 660.748 372.612 661.504 372.472 L 661.504 372.472 L 661.504 372.472 Q 662.261 372.333 663.42 371.871 L 663.42 371.871 L 663.42 372.837 L 663.42 372.837 Q 662.433 373.266 661.596 373.422 L 661.596 373.422 L 661.596 373.422 Q 660.759 373.577 659.75 373.577 Z  M 659.439 362.418 L 659.439 362.418 L 659.439 362.418 Q 657.754 362.418 656.735 363.529 L 656.735 363.529 L 656.735 363.529 Q 655.716 364.639 655.544 366.732 L 655.544 366.732 L 662.755 366.732 L 662.755 366.732 Q 662.755 364.704 661.875 363.561 L 661.875 363.561 L 661.875 363.561 Q 660.995 362.418 659.439 362.418 Z  M 671.371 361.474 L 671.371 361.474 L 671.371 361.474 Q 672.637 361.474 673.56 361.935 L 673.56 361.935 L 673.56 361.935 Q 674.483 362.397 675.212 363.512 L 675.212 363.512 L 675.277 363.512 L 675.277 363.512 Q 675.212 362.16 675.212 360.862 L 675.212 360.862 L 675.212 356.667 L 676.264 356.667 L 676.264 373.363 L 675.566 373.363 L 675.298 371.582 L 675.212 371.582 L 675.212 371.582 Q 673.882 373.577 671.392 373.577 L 671.392 373.577 L 671.392 373.577 Q 668.978 373.577 667.701 372.075 L 667.701 372.075 L 667.701 372.075 Q 666.424 370.573 666.424 367.697 L 666.424 367.697 L 666.424 367.697 Q 666.424 364.671 667.69 363.073 L 667.69 363.073 L 667.69 363.073 Q 668.957 361.474 671.371 361.474 Z  M 671.371 362.439 L 671.371 362.439 L 671.371 362.439 Q 669.461 362.439 668.501 363.781 L 668.501 363.781 L 668.501 363.781 Q 667.54 365.122 667.54 367.676 L 667.54 367.676 L 667.54 367.676 Q 667.54 372.633 671.392 372.633 L 671.392 372.633 L 671.392 372.633 Q 673.367 372.633 674.289 371.485 L 674.289 371.485 L 674.289 371.485 Q 675.212 370.337 675.212 367.697 L 675.212 367.697 L 675.212 367.515 L 675.212 367.515 Q 675.212 364.811 674.306 363.625 L 674.306 363.625 L 674.306 363.625 Q 673.399 362.439 671.371 362.439 Z  M 689.827 367.515 L 689.827 367.515 L 689.827 367.515 Q 689.827 370.369 688.443 371.973 L 688.443 371.973 L 688.443 371.973 Q 687.058 373.577 684.623 373.577 L 684.623 373.577 L 684.623 373.577 Q 683.088 373.577 681.919 372.837 L 681.919 372.837 L 681.919 372.837 Q 680.749 372.097 680.127 370.712 L 680.127 370.712 L 680.127 370.712 Q 679.504 369.328 679.504 367.515 L 679.504 367.515 L 679.504 367.515 Q 679.504 364.661 680.888 363.067 L 680.888 363.067 L 680.888 363.067 Q 682.273 361.474 684.687 361.474 L 684.687 361.474 L 684.687 361.474 Q 687.091 361.474 688.459 363.089 L 688.459 363.089 L 688.459 363.089 Q 689.827 364.704 689.827 367.515 Z  M 680.62 367.515 L 680.62 367.515 L 680.62 367.515 Q 680.62 369.918 681.677 371.265 L 681.677 371.265 L 681.677 371.265 Q 682.734 372.612 684.666 372.612 L 684.666 372.612 L 684.666 372.612 Q 686.597 372.612 687.654 371.265 L 687.654 371.265 L 687.654 371.265 Q 688.711 369.918 688.711 367.515 L 688.711 367.515 L 688.711 367.515 Q 688.711 365.101 687.643 363.77 L 687.643 363.77 L 687.643 363.77 Q 686.575 362.439 684.644 362.439 L 684.644 362.439 L 684.644 362.439 Q 682.713 362.439 681.666 363.765 L 681.666 363.765 L 681.666 363.765 Q 680.62 365.09 680.62 367.515 Z  M 708.68 373.363 L 707.628 373.363 L 707.628 365.712 L 707.628 365.712 Q 707.628 364.006 706.963 363.223 L 706.963 363.223 L 706.963 363.223 Q 706.298 362.439 704.924 362.439 L 704.924 362.439 L 704.924 362.439 Q 703.132 362.439 702.274 363.427 L 702.274 363.427 L 702.274 363.427 Q 701.415 364.414 701.415 366.528 L 701.415 366.528 L 701.415 373.363 L 700.332 373.363 L 700.332 365.39 L 700.332 365.39 Q 700.332 362.439 697.628 362.439 L 697.628 362.439 L 697.628 362.439 Q 695.793 362.439 694.956 363.507 L 694.956 363.507 L 694.956 363.507 Q 694.119 364.575 694.119 366.925 L 694.119 366.925 L 694.119 373.363 L 693.056 373.363 L 693.056 361.699 L 693.936 361.699 L 694.162 363.298 L 694.226 363.298 L 694.226 363.298 Q 694.709 362.429 695.6 361.951 L 695.6 361.951 L 695.6 361.951 Q 696.49 361.474 697.563 361.474 L 697.563 361.474 L 697.563 361.474 Q 700.321 361.474 701.104 363.545 L 701.104 363.545 L 701.147 363.545 L 701.147 363.545 Q 701.716 362.547 702.676 362.01 L 702.676 362.01 L 702.676 362.01 Q 703.636 361.474 704.86 361.474 L 704.86 361.474 L 704.86 361.474 Q 706.77 361.474 707.725 362.493 L 707.725 362.493 L 707.725 362.493 Q 708.68 363.512 708.68 365.734 L 708.68 365.734 L 708.68 373.363 Z  M 712.414 370.809 L 713.669 370.809 L 713.798 371.034 L 713.798 371.034 Q 712.993 373.878 711.931 376.196 L 711.931 376.196 L 711.233 376.196 L 711.233 376.196 Q 712.06 373.245 712.414 370.809 L 712.414 370.809 Z  M 586.946 373.363 L 585.83 373.363 L 583.276 365.562 L 583.276 365.562 Q 583.029 364.768 582.643 363.233 L 582.643 363.233 L 582.579 363.233 L 582.353 364.028 L 581.871 365.583 L 579.274 373.363 L 578.222 373.363 L 574.885 361.699 L 576.023 361.699 L 577.89 368.459 L 577.89 368.459 Q 578.544 370.97 578.748 372.15 L 578.748 372.15 L 578.812 372.15 L 578.812 372.15 Q 579.446 369.639 579.735 368.813 L 579.735 368.813 L 582.139 361.699 L 583.105 361.699 L 585.39 368.792 L 585.39 368.792 Q 586.163 371.313 586.334 372.129 L 586.334 372.129 L 586.399 372.129 L 586.399 372.129 Q 586.485 371.431 587.257 368.395 L 587.257 368.395 L 589.038 361.699 L 590.111 361.699 L 586.946 373.363 Z  M 593.459 361.699 L 593.459 373.363 L 592.397 373.363 L 592.397 361.699 L 593.459 361.699 Z  M 592.247 358.459 L 592.247 358.459 L 592.247 358.459 Q 592.247 357.428 592.923 357.428 L 592.923 357.428 L 592.923 357.428 Q 593.255 357.428 593.443 357.697 L 593.443 357.697 L 593.443 357.697 Q 593.631 357.965 593.631 358.459 L 593.631 358.459 L 593.631 358.459 Q 593.631 358.941 593.443 359.22 L 593.443 359.22 L 593.443 359.22 Q 593.255 359.499 592.923 359.499 L 592.923 359.499 L 592.923 359.499 Q 592.247 359.499 592.247 358.459 Z  M 600.444 372.633 L 600.444 372.633 L 600.444 372.633 Q 601.453 372.633 602.204 372.461 L 602.204 372.461 L 602.204 373.32 L 602.204 373.32 Q 601.432 373.577 600.423 373.577 L 600.423 373.577 L 600.423 373.577 Q 598.878 373.577 598.143 372.751 L 598.143 372.751 L 598.143 372.751 Q 597.408 371.925 597.408 370.154 L 597.408 370.154 L 597.408 362.622 L 595.68 362.622 L 595.68 362 L 597.408 361.517 L 597.944 358.877 L 598.492 358.877 L 598.492 361.699 L 601.914 361.699 L 601.914 362.622 L 598.492 362.622 L 598.492 370.004 L 598.492 370.004 Q 598.492 371.345 598.964 371.989 L 598.964 371.989 L 598.964 371.989 Q 599.436 372.633 600.444 372.633 Z  M 613.911 373.363 L 612.859 373.363 L 612.859 365.798 L 612.859 365.798 Q 612.859 364.038 612.119 363.239 L 612.119 363.239 L 612.119 363.239 Q 611.378 362.439 609.823 362.439 L 609.823 362.439 L 609.823 362.439 Q 607.73 362.439 606.759 363.496 L 606.759 363.496 L 606.759 363.496 Q 605.788 364.553 605.788 366.925 L 605.788 366.925 L 605.788 373.363 L 604.726 373.363 L 604.726 356.667 L 605.788 356.667 L 605.788 361.978 L 605.734 363.47 L 605.81 363.47 L 605.81 363.47 Q 606.464 362.418 607.462 361.946 L 607.462 361.946 L 607.462 361.946 Q 608.46 361.474 609.941 361.474 L 609.941 361.474 L 609.941 361.474 Q 613.911 361.474 613.911 365.734 L 613.911 365.734 L 613.911 373.363 Z  M 515.741 365.369 L 515.741 365.369 L 515.741 365.369 Q 515.741 369.317 513.67 371.34 L 513.67 371.34 L 513.67 371.34 Q 511.599 373.363 507.586 373.363 L 507.586 373.363 L 503.83 373.363 L 503.83 357.675 L 508.068 357.675 L 508.068 357.675 Q 511.824 357.675 513.782 359.639 L 513.782 359.639 L 513.782 359.639 Q 515.741 361.602 515.741 365.369 Z  M 514.55 365.412 L 514.55 365.412 L 514.55 365.412 Q 514.55 362.042 512.838 360.342 L 512.838 360.342 L 512.838 360.342 Q 511.127 358.641 507.811 358.641 L 507.811 358.641 L 504.925 358.641 L 504.925 372.397 L 507.521 372.397 L 507.521 372.397 Q 514.55 372.397 514.55 365.412 Z  M 523.788 373.577 L 523.788 373.577 L 523.788 373.577 Q 521.245 373.577 519.823 372.011 L 519.823 372.011 L 519.823 372.011 Q 518.402 370.444 518.402 367.622 L 518.402 367.622 L 518.402 367.622 Q 518.402 364.832 519.775 363.153 L 519.775 363.153 L 519.775 363.153 Q 521.149 361.474 523.477 361.474 L 523.477 361.474 L 523.477 361.474 Q 525.537 361.474 526.728 362.912 L 526.728 362.912 L 526.728 362.912 Q 527.919 364.349 527.919 366.817 L 527.919 366.817 L 527.919 367.676 L 519.518 367.676 L 519.518 367.676 Q 519.539 370.079 520.639 371.345 L 520.639 371.345 L 520.639 371.345 Q 521.739 372.612 523.788 372.612 L 523.788 372.612 L 523.788 372.612 Q 524.786 372.612 525.543 372.472 L 525.543 372.472 L 525.543 372.472 Q 526.299 372.333 527.458 371.871 L 527.458 371.871 L 527.458 372.837 L 527.458 372.837 Q 526.471 373.266 525.634 373.422 L 525.634 373.422 L 525.634 373.422 Q 524.797 373.577 523.788 373.577 Z  M 523.477 362.418 L 523.477 362.418 L 523.477 362.418 Q 521.792 362.418 520.773 363.529 L 520.773 363.529 L 520.773 363.529 Q 519.754 364.639 519.582 366.732 L 519.582 366.732 L 526.793 366.732 L 526.793 366.732 Q 526.793 364.704 525.913 363.561 L 525.913 363.561 L 525.913 363.561 Q 525.033 362.418 523.477 362.418 Z  M 538.37 370.326 L 538.37 370.326 L 538.37 370.326 Q 538.37 371.893 537.179 372.735 L 537.179 372.735 L 537.179 372.735 Q 535.988 373.577 533.799 373.577 L 533.799 373.577 L 533.799 373.577 Q 531.46 373.577 530.087 372.858 L 530.087 372.858 L 530.087 371.71 L 530.087 371.71 Q 531.847 372.59 533.799 372.59 L 533.799 372.59 L 533.799 372.59 Q 535.527 372.59 536.423 372.016 L 536.423 372.016 L 536.423 372.016 Q 537.319 371.442 537.319 370.487 L 537.319 370.487 L 537.319 370.487 Q 537.319 369.607 536.605 369.006 L 536.605 369.006 L 536.605 369.006 Q 535.892 368.405 534.261 367.826 L 534.261 367.826 L 534.261 367.826 Q 532.512 367.193 531.804 366.737 L 531.804 366.737 L 531.804 366.737 Q 531.095 366.281 530.736 365.707 L 530.736 365.707 L 530.736 365.707 Q 530.377 365.133 530.377 364.306 L 530.377 364.306 L 530.377 364.306 Q 530.377 362.997 531.476 362.236 L 531.476 362.236 L 531.476 362.236 Q 532.576 361.474 534.551 361.474 L 534.551 361.474 L 534.551 361.474 Q 536.439 361.474 538.134 362.182 L 538.134 362.182 L 537.737 363.148 L 537.737 363.148 Q 536.021 362.439 534.551 362.439 L 534.551 362.439 L 534.551 362.439 Q 533.123 362.439 532.286 362.912 L 532.286 362.912 L 532.286 362.912 Q 531.45 363.384 531.45 364.221 L 531.45 364.221 L 531.45 364.221 Q 531.45 365.133 532.099 365.68 L 532.099 365.68 L 532.099 365.68 Q 532.748 366.227 534.636 366.903 L 534.636 366.903 L 534.636 366.903 Q 536.214 367.472 536.933 367.928 L 536.933 367.928 L 536.933 367.928 Q 537.652 368.384 538.011 368.963 L 538.011 368.963 L 538.011 368.963 Q 538.37 369.543 538.37 370.326 Z  M 542.437 361.699 L 542.437 373.363 L 541.375 373.363 L 541.375 361.699 L 542.437 361.699 Z  M 541.225 358.459 L 541.225 358.459 L 541.225 358.459 Q 541.225 357.428 541.901 357.428 L 541.901 357.428 L 541.901 357.428 Q 542.233 357.428 542.421 357.697 L 542.421 357.697 L 542.421 357.697 Q 542.609 357.965 542.609 358.459 L 542.609 358.459 L 542.609 358.459 Q 542.609 358.941 542.421 359.22 L 542.421 359.22 L 542.421 359.22 Q 542.233 359.499 541.901 359.499 L 541.901 359.499 L 541.901 359.499 Q 541.225 359.499 541.225 358.459 Z  M 551.708 361.699 L 555.442 361.699 L 555.442 362.439 L 553.028 362.59 L 553.028 362.59 Q 553.994 363.791 553.994 365.229 L 553.994 365.229 L 553.994 365.229 Q 553.994 366.914 552.872 367.96 L 552.872 367.96 L 552.872 367.96 Q 551.751 369.006 549.862 369.006 L 549.862 369.006 L 549.862 369.006 Q 549.068 369.006 548.747 368.942 L 548.747 368.942 L 548.747 368.942 Q 548.113 369.275 547.781 369.725 L 547.781 369.725 L 547.781 369.725 Q 547.448 370.176 547.448 370.68 L 547.448 370.68 L 547.448 370.68 Q 547.448 371.238 547.872 371.496 L 547.872 371.496 L 547.872 371.496 Q 548.296 371.753 549.294 371.753 L 549.294 371.753 L 551.333 371.753 L 551.333 371.753 Q 553.232 371.753 554.24 372.52 L 554.24 372.52 L 554.24 372.52 Q 555.249 373.288 555.249 374.79 L 555.249 374.79 L 555.249 374.79 Q 555.249 376.635 553.752 377.639 L 553.752 377.639 L 553.752 377.639 Q 552.255 378.642 549.487 378.642 L 549.487 378.642 L 549.487 378.642 Q 547.287 378.642 546.08 377.794 L 546.08 377.794 L 546.08 377.794 Q 544.873 376.947 544.873 375.434 L 544.873 375.434 L 544.873 375.434 Q 544.873 374.232 545.619 373.438 L 545.619 373.438 L 545.619 373.438 Q 546.364 372.644 547.641 372.354 L 547.641 372.354 L 547.641 372.354 Q 547.116 372.129 546.799 371.716 L 546.799 371.716 L 546.799 371.716 Q 546.482 371.303 546.482 370.766 L 546.482 370.766 L 546.482 370.766 Q 546.482 369.596 547.974 368.706 L 547.974 368.706 L 547.974 368.706 Q 546.955 368.287 546.386 367.391 L 546.386 367.391 L 546.386 367.391 Q 545.817 366.495 545.817 365.337 L 545.817 365.337 L 545.817 365.337 Q 545.817 363.588 546.928 362.531 L 546.928 362.531 L 546.928 362.531 Q 548.038 361.474 549.927 361.474 L 549.927 361.474 L 549.927 361.474 Q 551.075 361.474 551.708 361.699 L 551.708 361.699 Z  M 546 375.337 L 546 375.337 L 546 375.337 Q 546 377.741 549.573 377.741 L 549.573 377.741 L 549.573 377.741 Q 554.165 377.741 554.165 374.811 L 554.165 374.811 L 554.165 374.811 Q 554.165 373.76 553.446 373.288 L 553.446 373.288 L 553.446 373.288 Q 552.727 372.816 551.118 372.816 L 551.118 372.816 L 549.208 372.816 L 549.208 372.816 Q 546 372.816 546 375.337 Z  M 546.89 365.337 L 546.89 365.337 L 546.89 365.337 Q 546.89 366.689 547.711 367.434 L 547.711 367.434 L 547.711 367.434 Q 548.532 368.18 549.905 368.18 L 549.905 368.18 L 549.905 368.18 Q 551.365 368.18 552.143 367.44 L 552.143 367.44 L 552.143 367.44 Q 552.921 366.699 552.921 365.294 L 552.921 365.294 L 552.921 365.294 Q 552.921 363.802 552.121 363.056 L 552.121 363.056 L 552.121 363.056 Q 551.322 362.311 549.884 362.311 L 549.884 362.311 L 549.884 362.311 Q 548.489 362.311 547.69 363.11 L 547.69 363.11 L 547.69 363.11 Q 546.89 363.909 546.89 365.337 Z  M 567.02 373.363 L 565.968 373.363 L 565.968 365.798 L 565.968 365.798 Q 565.968 364.038 565.228 363.239 L 565.228 363.239 L 565.228 363.239 Q 564.488 362.439 562.932 362.439 L 562.932 362.439 L 562.932 362.439 Q 560.839 362.439 559.868 363.496 L 559.868 363.496 L 559.868 363.496 Q 558.897 364.553 558.897 366.925 L 558.897 366.925 L 558.897 373.363 L 557.835 373.363 L 557.835 361.699 L 558.736 361.699 L 558.94 363.298 L 559.005 363.298 L 559.005 363.298 Q 560.142 361.474 563.05 361.474 L 563.05 361.474 L 563.05 361.474 Q 567.02 361.474 567.02 365.734 L 567.02 365.734 L 567.02 373.363 Z " fill="rgb(255,255,255)"/><path d=" M 521.25 272.628 L 508.548 272.628 L 508.548 324.75 L 511.468 324.75 L 511.468 298.689 L 521.25 298.689 C 529.426 298.689 535.412 293.579 535.412 285.549 C 535.412 277.519 529.426 272.628 521.25 272.628 Z  M 521.177 295.696 L 511.468 295.696 L 511.468 275.621 L 521.177 275.621 C 527.601 275.621 532.419 279.344 532.419 285.549 C 532.419 291.827 527.601 295.696 521.177 295.696 Z  M 572.423 309.712 C 572.423 301.098 565.488 294.09 556.874 294.09 C 548.26 294.09 541.325 301.098 541.325 309.712 C 541.325 318.326 548.26 325.261 556.874 325.261 C 565.488 325.261 572.423 318.326 572.423 309.712 Z  M 544.245 309.712 C 544.245 302.704 549.866 297.01 556.874 297.01 C 563.882 297.01 569.503 302.704 569.503 309.712 C 569.503 316.72 563.882 322.341 556.874 322.341 C 549.866 322.341 544.245 316.72 544.245 309.712 Z  M 583.665 324.75 L 583.665 270.73 L 580.745 270.73 L 580.745 324.75 L 583.665 324.75 Z  M 605.638 318.399 L 594.396 294.601 L 591.184 294.601 L 603.886 321.976 L 596.075 338.912 L 599.433 338.912 L 620.019 294.601 L 616.734 294.601 L 605.638 318.399 Z  M 626.443 324.75 L 629.436 324.75 L 629.436 303.434 C 629.436 300.587 631.845 297.156 635.422 297.156 C 637.612 297.156 638.999 297.813 640.678 299.054 L 642.284 296.572 C 640.459 295.258 638.561 294.236 635.276 294.236 C 632.721 294.236 630.458 295.404 629.436 297.229 L 629.436 294.601 L 626.443 294.601 L 626.443 324.75 Z  M 652.577 294.601 L 649.584 294.601 L 649.584 324.75 L 652.577 324.75 L 652.577 294.601 Z  M 653.526 286.79 C 653.526 285.476 652.431 284.381 651.117 284.381 C 649.803 284.381 648.708 285.476 648.708 286.79 C 648.708 288.104 649.803 289.199 651.117 289.199 C 652.431 289.199 653.526 288.104 653.526 286.79 Z  M 676.375 299.565 L 678.565 297.667 C 676.448 295.55 674.039 294.163 670.024 294.163 C 665.425 294.163 661.775 297.448 661.775 301.682 C 661.775 306.792 665.571 308.471 669.294 309.712 C 673.382 311.099 677.178 312.267 677.178 316.501 C 677.178 320.078 674.842 322.341 670.316 322.341 C 666.52 322.341 663.673 320.224 662.359 317.45 L 659.804 318.983 C 661.41 321.976 664.403 325.334 670.316 325.334 C 676.302 325.334 680.171 321.319 680.171 316.501 C 680.171 310.369 674.988 308.617 670.535 307.011 C 667.177 305.843 664.768 304.821 664.768 301.682 C 664.768 298.762 667.177 297.083 670.024 297.083 C 672.871 297.083 674.769 297.959 676.375 299.565 Z  M 712.145 306.208 L 687.69 306.208 C 688.639 302.631 691.851 297.01 699.954 297.01 C 707.838 297.01 711.415 302.704 712.145 306.208 Z  M 711.123 316.063 C 709.225 319.494 705.867 322.414 699.954 322.414 C 692.508 322.414 687.252 317.45 687.252 309.055 L 715.503 309.055 C 715.503 300.879 709.371 294.09 699.954 294.09 C 691.048 294.09 684.332 300.514 684.332 309.712 C 684.332 318.837 690.756 325.334 699.954 325.334 C 707.546 325.334 711.78 321.392 713.824 317.304 L 711.123 316.063 Z " fill="rgb(255,255,255)"/></g></svg>