<?xml version="1.0" encoding="UTF-8" standalone="no"?><!-- Generator: Gravit.io --><svg xmlns="http://www.w3.org/2000/svg" xmlns:xlink="http://www.w3.org/1999/xlink" style="isolation:isolate" viewBox="0 0 1200 630" width="1200pt" height="630pt"><defs><clipPath id="_clipPath_umEKhvYgAi3KoJetgtbUOZFOdLJOrZ3O"><rect width="1200" height="630"/></clipPath></defs><g clip-path="url(#_clipPath_umEKhvYgAi3KoJetgtbUOZFOdLJOrZ3O)"><rect width="1200" height="630" style="fill:rgb(17,24,39)" fill-opacity="0"/><rect x="0" y="0" width="1200" height="630" transform="matrix(1,0,0,1,0,0)" fill="rgb(17,24,39)"/><g><g><path d=" M 356.246 315 L 356.246 396.848 L 375.419 385.724 L 375.419 362.588 L 375.419 315 L 356.246 315 Z  M 460.539 315 L 390.457 354.181 L 390.457 377.002 L 497.334 315 L 460.539 315 Z " fill="rgb(19,58,212)"/><path d=" M 436.106 314.891 L 390.457 340.411 L 390.457 289.371 L 436.106 314.891 Z " fill="rgb(4,162,255)"/><path d=" M 356.246 233.152 L 356.246 315 L 375.419 315 L 375.419 284.821 L 375.419 267.194 L 460.735 314.89 L 460.539 315 L 497.334 315 L 497.337 314.999 L 356.246 233.152 Z " fill="rgb(134,0,239)"/></g><g><path d=" M 809.682 375.16 L 809.682 373.323 L 819.999 373.323 L 819.999 386.09 L 819.999 386.09 Q 815.941 387.813 810.869 387.813 L 810.869 387.813 L 810.869 387.813 Q 804.246 387.813 800.714 384.071 L 800.714 384.071 L 800.714 384.071 Q 797.183 380.329 797.183 373.476 L 797.183 373.476 L 797.183 373.476 Q 797.183 369.207 798.934 365.906 L 798.934 365.906 L 798.934 365.906 Q 800.686 362.604 803.949 360.804 L 803.949 360.804 L 803.949 360.804 Q 807.213 359.005 811.443 359.005 L 811.443 359.005 L 811.443 359.005 Q 816.018 359.005 819.655 360.689 L 819.655 360.689 L 818.87 362.451 L 818.87 362.451 Q 815.233 360.766 811.328 360.766 L 811.328 360.766 L 811.328 360.766 Q 805.796 360.766 802.552 364.183 L 802.552 364.183 L 802.552 364.183 Q 799.308 367.6 799.308 373.399 L 799.308 373.399 L 799.308 373.399 Q 799.308 379.716 802.389 382.903 L 802.389 382.903 L 802.389 382.903 Q 805.471 386.09 811.443 386.09 L 811.443 386.09 L 811.443 386.09 Q 815.31 386.09 818.009 384.999 L 818.009 384.999 L 818.009 375.16 L 809.682 375.16 Z  M 843.754 376.998 L 843.754 376.998 L 843.754 376.998 Q 843.754 382.09 841.285 384.951 L 841.285 384.951 L 841.285 384.951 Q 838.816 387.813 834.47 387.813 L 834.47 387.813 L 834.47 387.813 Q 831.733 387.813 829.647 386.492 L 829.647 386.492 L 829.647 386.492 Q 827.56 385.171 826.45 382.702 L 826.45 382.702 L 826.45 382.702 Q 825.34 380.233 825.34 376.998 L 825.34 376.998 L 825.34 376.998 Q 825.34 371.906 827.809 369.064 L 827.809 369.064 L 827.809 369.064 Q 830.278 366.221 834.585 366.221 L 834.585 366.221 L 834.585 366.221 Q 838.873 366.221 841.314 369.102 L 841.314 369.102 L 841.314 369.102 Q 843.754 371.983 843.754 376.998 Z  M 827.331 376.998 L 827.331 376.998 L 827.331 376.998 Q 827.331 381.286 829.216 383.688 L 829.216 383.688 L 829.216 383.688 Q 831.102 386.09 834.547 386.09 L 834.547 386.09 L 834.547 386.09 Q 837.992 386.09 839.878 383.688 L 839.878 383.688 L 839.878 383.688 Q 841.763 381.286 841.763 376.998 L 841.763 376.998 L 841.763 376.998 Q 841.763 372.691 839.859 370.318 L 839.859 370.318 L 839.859 370.318 Q 837.954 367.944 834.509 367.944 L 834.509 367.944 L 834.509 367.944 Q 831.063 367.944 829.197 370.308 L 829.197 370.308 L 829.197 370.308 Q 827.331 372.672 827.331 376.998 Z  M 735.739 386.129 L 735.739 386.129 L 735.739 386.129 Q 737.538 386.129 738.878 385.822 L 738.878 385.822 L 738.878 387.354 L 738.878 387.354 Q 737.5 387.813 735.7 387.813 L 735.7 387.813 L 735.7 387.813 Q 732.944 387.813 731.633 386.339 L 731.633 386.339 L 731.633 386.339 Q 730.322 384.865 730.322 381.707 L 730.322 381.707 L 730.322 368.27 L 727.24 368.27 L 727.24 367.159 L 730.322 366.298 L 731.279 361.589 L 732.255 361.589 L 732.255 366.623 L 738.361 366.623 L 738.361 368.27 L 732.255 368.27 L 732.255 381.439 L 732.255 381.439 Q 732.255 383.832 733.097 384.98 L 733.097 384.98 L 733.097 384.98 Q 733.939 386.129 735.739 386.129 Z  M 759.761 387.43 L 757.885 387.43 L 757.885 373.935 L 757.885 373.935 Q 757.885 370.796 756.565 369.37 L 756.565 369.37 L 756.565 369.37 Q 755.244 367.944 752.468 367.944 L 752.468 367.944 L 752.468 367.944 Q 748.736 367.944 747.003 369.83 L 747.003 369.83 L 747.003 369.83 Q 745.271 371.715 745.271 375.945 L 745.271 375.945 L 745.271 387.43 L 743.376 387.43 L 743.376 357.646 L 745.271 357.646 L 745.271 367.121 L 745.175 369.782 L 745.309 369.782 L 745.309 369.782 Q 746.477 367.906 748.257 367.064 L 748.257 367.064 L 748.257 367.064 Q 750.037 366.221 752.679 366.221 L 752.679 366.221 L 752.679 366.221 Q 759.761 366.221 759.761 373.821 L 759.761 373.821 L 759.761 387.43 Z  M 774.902 387.813 L 774.902 387.813 L 774.902 387.813 Q 770.366 387.813 767.829 385.018 L 767.829 385.018 L 767.829 385.018 Q 765.293 382.224 765.293 377.189 L 765.293 377.189 L 765.293 377.189 Q 765.293 372.213 767.743 369.217 L 767.743 369.217 L 767.743 369.217 Q 770.193 366.221 774.347 366.221 L 774.347 366.221 L 774.347 366.221 Q 778.022 366.221 780.147 368.786 L 780.147 368.786 L 780.147 368.786 Q 782.272 371.351 782.272 375.754 L 782.272 375.754 L 782.272 377.285 L 767.284 377.285 L 767.284 377.285 Q 767.322 381.573 769.284 383.832 L 769.284 383.832 L 769.284 383.832 Q 771.246 386.09 774.902 386.09 L 774.902 386.09 L 774.902 386.09 Q 776.682 386.09 778.032 385.841 L 778.032 385.841 L 778.032 385.841 Q 779.381 385.593 781.448 384.769 L 781.448 384.769 L 781.448 386.492 L 781.448 386.492 Q 779.687 387.258 778.194 387.535 L 778.194 387.535 L 778.194 387.535 Q 776.701 387.813 774.902 387.813 Z  M 774.347 367.906 L 774.347 367.906 L 774.347 367.906 Q 771.342 367.906 769.523 369.887 L 769.523 369.887 L 769.523 369.887 Q 767.705 371.868 767.399 375.601 L 767.399 375.601 L 780.262 375.601 L 780.262 375.601 Q 780.262 371.983 778.692 369.944 L 778.692 369.944 L 778.692 369.944 Q 777.122 367.906 774.347 367.906 Z  M 690.986 373.399 L 690.986 373.399 L 690.986 373.399 Q 690.986 380.061 687.655 383.937 L 687.655 383.937 L 687.655 383.937 Q 684.324 387.813 678.467 387.813 L 678.467 387.813 L 678.467 387.813 Q 672.629 387.813 669.298 383.937 L 669.298 383.937 L 669.298 383.937 Q 665.968 380.061 665.968 373.361 L 665.968 373.361 L 665.968 373.361 Q 665.968 366.681 669.327 362.843 L 669.327 362.843 L 669.327 362.843 Q 672.686 359.005 678.505 359.005 L 678.505 359.005 L 678.505 359.005 Q 684.363 359.005 687.674 362.862 L 687.674 362.862 L 687.674 362.862 Q 690.986 366.719 690.986 373.399 Z  M 668.092 373.399 L 668.092 373.399 L 668.092 373.399 Q 668.092 379.41 670.772 382.693 L 670.772 382.693 L 670.772 382.693 Q 673.452 385.975 678.467 385.975 L 678.467 385.975 L 678.467 385.975 Q 683.521 385.975 686.191 382.721 L 686.191 382.721 L 686.191 382.721 Q 688.861 379.467 688.861 373.399 L 688.861 373.399 L 688.861 373.399 Q 688.861 367.351 686.191 364.125 L 686.191 364.125 L 686.191 364.125 Q 683.521 360.9 678.505 360.9 L 678.505 360.9 L 678.505 360.9 Q 673.51 360.9 670.801 364.154 L 670.801 364.154 L 670.801 364.154 Q 668.092 367.408 668.092 373.399 Z  M 713.324 387.43 L 711.448 387.43 L 711.448 373.935 L 711.448 373.935 Q 711.448 370.796 710.127 369.37 L 710.127 369.37 L 710.127 369.37 Q 708.806 367.944 706.031 367.944 L 706.031 367.944 L 706.031 367.944 Q 702.298 367.944 700.566 369.83 L 700.566 369.83 L 700.566 369.83 Q 698.834 371.715 698.834 375.945 L 698.834 375.945 L 698.834 387.43 L 696.939 387.43 L 696.939 366.623 L 698.547 366.623 L 698.91 369.475 L 699.025 369.475 L 699.025 369.475 Q 701.054 366.221 706.241 366.221 L 706.241 366.221 L 706.241 366.221 Q 713.324 366.221 713.324 373.821 L 713.324 373.821 L 713.324 387.43 Z  M 558.584 373.17 L 558.584 373.17 L 558.584 373.17 Q 558.584 380.214 554.89 383.822 L 554.89 383.822 L 554.89 383.822 Q 551.195 387.43 544.036 387.43 L 544.036 387.43 L 537.337 387.43 L 537.337 359.445 L 544.898 359.445 L 544.898 359.445 Q 551.597 359.445 555.091 362.948 L 555.091 362.948 L 555.091 362.948 Q 558.584 366.451 558.584 373.17 Z  M 556.459 373.246 L 556.459 373.246 L 556.459 373.246 Q 556.459 367.236 553.406 364.202 L 553.406 364.202 L 553.406 364.202 Q 550.353 361.168 544.438 361.168 L 544.438 361.168 L 539.289 361.168 L 539.289 385.707 L 543.922 385.707 L 543.922 385.707 Q 556.459 385.707 556.459 373.246 Z  M 572.94 387.813 L 572.94 387.813 L 572.94 387.813 Q 568.404 387.813 565.867 385.018 L 565.867 385.018 L 565.867 385.018 Q 563.331 382.224 563.331 377.189 L 563.331 377.189 L 563.331 377.189 Q 563.331 372.213 565.781 369.217 L 565.781 369.217 L 565.781 369.217 Q 568.231 366.221 572.385 366.221 L 572.385 366.221 L 572.385 366.221 Q 576.06 366.221 578.185 368.786 L 578.185 368.786 L 578.185 368.786 Q 580.31 371.351 580.31 375.754 L 580.31 375.754 L 580.31 377.285 L 565.322 377.285 L 565.322 377.285 Q 565.36 381.573 567.322 383.832 L 567.322 383.832 L 567.322 383.832 Q 569.284 386.09 572.94 386.09 L 572.94 386.09 L 572.94 386.09 Q 574.72 386.09 576.07 385.841 L 576.07 385.841 L 576.07 385.841 Q 577.419 385.593 579.486 384.769 L 579.486 384.769 L 579.486 386.492 L 579.486 386.492 Q 577.725 387.258 576.232 387.535 L 576.232 387.535 L 576.232 387.535 Q 574.739 387.813 572.94 387.813 Z  M 572.385 367.906 L 572.385 367.906 L 572.385 367.906 Q 569.38 367.906 567.561 369.887 L 567.561 369.887 L 567.561 369.887 Q 565.743 371.868 565.437 375.601 L 565.437 375.601 L 578.3 375.601 L 578.3 375.601 Q 578.3 371.983 576.73 369.944 L 576.73 369.944 L 576.73 369.944 Q 575.16 367.906 572.385 367.906 Z  M 598.953 382.013 L 598.953 382.013 L 598.953 382.013 Q 598.953 384.808 596.829 386.31 L 596.829 386.31 L 596.829 386.31 Q 594.704 387.813 590.799 387.813 L 590.799 387.813 L 590.799 387.813 Q 586.626 387.813 584.176 386.531 L 584.176 386.531 L 584.176 384.482 L 584.176 384.482 Q 587.315 386.052 590.799 386.052 L 590.799 386.052 L 590.799 386.052 Q 593.881 386.052 595.479 385.028 L 595.479 385.028 L 595.479 385.028 Q 597.077 384.004 597.077 382.3 L 597.077 382.3 L 597.077 382.3 Q 597.077 380.731 595.805 379.659 L 595.805 379.659 L 595.805 379.659 Q 594.532 378.587 591.622 377.553 L 591.622 377.553 L 591.622 377.553 Q 588.502 376.424 587.239 375.61 L 587.239 375.61 L 587.239 375.61 Q 585.975 374.797 585.334 373.773 L 585.334 373.773 L 585.334 373.773 Q 584.693 372.749 584.693 371.275 L 584.693 371.275 L 584.693 371.275 Q 584.693 368.939 586.655 367.58 L 586.655 367.58 L 586.655 367.58 Q 588.617 366.221 592.139 366.221 L 592.139 366.221 L 592.139 366.221 Q 595.508 366.221 598.532 367.485 L 598.532 367.485 L 597.824 369.207 L 597.824 369.207 Q 594.761 367.944 592.139 367.944 L 592.139 367.944 L 592.139 367.944 Q 589.593 367.944 588.1 368.786 L 588.1 368.786 L 588.1 368.786 Q 586.607 369.629 586.607 371.122 L 586.607 371.122 L 586.607 371.122 Q 586.607 372.749 587.765 373.725 L 587.765 373.725 L 587.765 373.725 Q 588.923 374.701 592.292 375.907 L 592.292 375.907 L 592.292 375.907 Q 595.106 376.921 596.388 377.735 L 596.388 377.735 L 596.388 377.735 Q 597.671 378.549 598.312 379.582 L 598.312 379.582 L 598.312 379.582 Q 598.953 380.616 598.953 382.013 Z  M 606.208 366.623 L 606.208 387.43 L 604.313 387.43 L 604.313 366.623 L 606.208 366.623 Z  M 604.045 360.843 L 604.045 360.843 L 604.045 360.843 Q 604.045 359.005 605.251 359.005 L 605.251 359.005 L 605.251 359.005 Q 605.844 359.005 606.179 359.484 L 606.179 359.484 L 606.179 359.484 Q 606.514 359.962 606.514 360.843 L 606.514 360.843 L 606.514 360.843 Q 606.514 361.704 606.179 362.202 L 606.179 362.202 L 606.179 362.202 Q 605.844 362.699 605.251 362.699 L 605.251 362.699 L 605.251 362.699 Q 604.045 362.699 604.045 360.843 Z  M 622.746 366.623 L 629.407 366.623 L 629.407 367.944 L 625.101 368.212 L 625.101 368.212 Q 626.823 370.356 626.823 372.921 L 626.823 372.921 L 626.823 372.921 Q 626.823 375.926 624.823 377.792 L 624.823 377.792 L 624.823 377.792 Q 622.823 379.659 619.454 379.659 L 619.454 379.659 L 619.454 379.659 Q 618.037 379.659 617.463 379.544 L 617.463 379.544 L 617.463 379.544 Q 616.334 380.137 615.74 380.941 L 615.74 380.941 L 615.74 380.941 Q 615.147 381.745 615.147 382.645 L 615.147 382.645 L 615.147 382.645 Q 615.147 383.64 615.903 384.1 L 615.903 384.1 L 615.903 384.1 Q 616.659 384.559 618.439 384.559 L 618.439 384.559 L 622.076 384.559 L 622.076 384.559 Q 625.464 384.559 627.264 385.928 L 627.264 385.928 L 627.264 385.928 Q 629.063 387.296 629.063 389.976 L 629.063 389.976 L 629.063 389.976 Q 629.063 393.268 626.393 395.058 L 626.393 395.058 L 626.393 395.058 Q 623.722 396.848 618.784 396.848 L 618.784 396.848 L 618.784 396.848 Q 614.86 396.848 612.707 395.336 L 612.707 395.336 L 612.707 395.336 Q 610.553 393.823 610.553 391.124 L 610.553 391.124 L 610.553 391.124 Q 610.553 388.981 611.883 387.564 L 611.883 387.564 L 611.883 387.564 Q 613.214 386.148 615.492 385.631 L 615.492 385.631 L 615.492 385.631 Q 614.554 385.229 613.989 384.492 L 613.989 384.492 L 613.989 384.492 Q 613.424 383.755 613.424 382.798 L 613.424 382.798 L 613.424 382.798 Q 613.424 380.711 616.085 379.123 L 616.085 379.123 L 616.085 379.123 Q 614.267 378.376 613.252 376.778 L 613.252 376.778 L 613.252 376.778 Q 612.238 375.18 612.238 373.112 L 612.238 373.112 L 612.238 373.112 Q 612.238 369.992 614.219 368.107 L 614.219 368.107 L 614.219 368.107 Q 616.2 366.221 619.569 366.221 L 619.569 366.221 L 619.569 366.221 Q 621.617 366.221 622.746 366.623 L 622.746 366.623 Z  M 612.563 390.952 L 612.563 390.952 L 612.563 390.952 Q 612.563 395.24 618.937 395.24 L 618.937 395.24 L 618.937 395.24 Q 627.13 395.24 627.13 390.014 L 627.13 390.014 L 627.13 390.014 Q 627.13 388.138 625.847 387.296 L 625.847 387.296 L 625.847 387.296 Q 624.565 386.454 621.693 386.454 L 621.693 386.454 L 618.286 386.454 L 618.286 386.454 Q 612.563 386.454 612.563 390.952 Z  M 614.152 373.112 L 614.152 373.112 L 614.152 373.112 Q 614.152 375.524 615.616 376.854 L 615.616 376.854 L 615.616 376.854 Q 617.08 378.185 619.53 378.185 L 619.53 378.185 L 619.53 378.185 Q 622.134 378.185 623.521 376.864 L 623.521 376.864 L 623.521 376.864 Q 624.909 375.543 624.909 373.036 L 624.909 373.036 L 624.909 373.036 Q 624.909 370.375 623.483 369.045 L 623.483 369.045 L 623.483 369.045 Q 622.057 367.714 619.492 367.714 L 619.492 367.714 L 619.492 367.714 Q 617.004 367.714 615.578 369.14 L 615.578 369.14 L 615.578 369.14 Q 614.152 370.567 614.152 373.112 Z  M 650.061 387.43 L 648.185 387.43 L 648.185 373.935 L 648.185 373.935 Q 648.185 370.796 646.865 369.37 L 646.865 369.37 L 646.865 369.37 Q 645.544 367.944 642.768 367.944 L 642.768 367.944 L 642.768 367.944 Q 639.036 367.944 637.303 369.83 L 637.303 369.83 L 637.303 369.83 Q 635.571 371.715 635.571 375.945 L 635.571 375.945 L 635.571 387.43 L 633.676 387.43 L 633.676 366.623 L 635.284 366.623 L 635.648 369.475 L 635.762 369.475 L 635.762 369.475 Q 637.791 366.221 642.979 366.221 L 642.979 366.221 L 642.979 366.221 Q 650.061 366.221 650.061 373.821 L 650.061 373.821 L 650.061 387.43 Z " fill="rgb(255,255,255)"/><path d=" M 556.143 235.962 L 537.337 235.962 L 537.337 313.134 L 541.66 313.134 L 541.66 274.548 L 556.143 274.548 C 568.249 274.548 577.112 266.982 577.112 255.093 C 577.112 243.204 568.249 235.962 556.143 235.962 Z  M 556.035 270.117 L 541.66 270.117 L 541.66 240.394 L 556.035 240.394 C 565.547 240.394 572.68 245.906 572.68 255.093 C 572.68 264.388 565.547 270.117 556.035 270.117 Z  M 631.91 290.869 C 631.91 278.115 621.642 267.739 608.888 267.739 C 596.134 267.739 585.866 278.115 585.866 290.869 C 585.866 303.623 596.134 313.891 608.888 313.891 C 621.642 313.891 631.91 303.623 631.91 290.869 Z  M 590.19 290.869 C 590.19 280.493 598.512 272.062 608.888 272.062 C 619.264 272.062 627.587 280.493 627.587 290.869 C 627.587 301.245 619.264 309.567 608.888 309.567 C 598.512 309.567 590.19 301.245 590.19 290.869 Z  M 648.555 313.134 L 648.555 233.152 L 644.232 233.152 L 644.232 313.134 L 648.555 313.134 Z  M 681.088 303.731 L 664.443 268.496 L 659.688 268.496 L 678.494 309.027 L 666.929 334.102 L 671.901 334.102 L 702.381 268.496 L 697.517 268.496 L 681.088 303.731 Z  M 711.892 313.134 L 716.323 313.134 L 716.323 281.574 C 716.323 277.358 719.89 272.278 725.186 272.278 C 728.429 272.278 730.482 273.251 732.968 275.089 L 735.346 271.414 C 732.644 269.468 729.834 267.955 724.97 267.955 C 721.187 267.955 717.837 269.684 716.323 272.387 L 716.323 268.496 L 711.892 268.496 L 711.892 313.134 Z  M 750.586 268.496 L 746.154 268.496 L 746.154 313.134 L 750.586 313.134 L 750.586 268.496 Z  M 751.991 256.931 C 751.991 254.985 750.37 253.364 748.424 253.364 C 746.479 253.364 744.858 254.985 744.858 256.931 C 744.858 258.876 746.479 260.497 748.424 260.497 C 750.37 260.497 751.991 258.876 751.991 256.931 Z  M 785.821 275.845 L 789.064 273.035 C 785.929 269.901 782.363 267.847 776.418 267.847 C 769.609 267.847 764.205 272.711 764.205 278.98 C 764.205 286.546 769.825 289.031 775.337 290.869 C 781.39 292.922 787.01 294.652 787.01 300.921 C 787.01 306.217 783.551 309.567 776.85 309.567 C 771.23 309.567 767.015 306.433 765.069 302.326 L 761.286 304.596 C 763.664 309.027 768.096 313.999 776.85 313.999 C 785.713 313.999 791.442 308.054 791.442 300.921 C 791.442 291.842 783.768 289.248 777.175 286.87 C 772.203 285.14 768.636 283.627 768.636 278.98 C 768.636 274.656 772.203 272.17 776.418 272.17 C 780.633 272.17 783.443 273.467 785.821 275.845 Z  M 838.782 285.681 L 802.574 285.681 C 803.979 280.385 808.735 272.062 820.732 272.062 C 832.405 272.062 837.701 280.493 838.782 285.681 Z  M 837.269 300.272 C 834.459 305.352 829.487 309.675 820.732 309.675 C 809.708 309.675 801.926 302.326 801.926 289.896 L 843.754 289.896 C 843.754 277.791 834.675 267.739 820.732 267.739 C 807.546 267.739 797.602 277.25 797.602 290.869 C 797.602 304.379 807.114 313.999 820.732 313.999 C 831.973 313.999 838.242 308.162 841.268 302.11 L 837.269 300.272 Z " fill="rgb(255,255,255)"/></g></g></g></svg>