<svg xmlns="http://www.w3.org/2000/svg" xmlns:xlink="http://www.w3.org/1999/xlink" style="isolation:isolate" width="512pt" height="512pt" viewBox="0 0 512 512"><defs><clipPath id="_clipPath_6UIeU1ZR2y81GjlJ3R7a4aF3f8GT9BCq"><rect width="512" height="512"/></clipPath></defs><g clip-path="url(#_clipPath_6UIeU1ZR2y81GjlJ3R7a4aF3f8GT9BCq)"><rect width="512" height="512" x="0" y="0" fill="#131720" transform="matrix(1,0,0,1,0,0)"/><g><path fill="#133AD4" d="M 147.002 256 L 147.002 382.462 L 176.627 365.275 L 176.627 329.528 L 176.627 256 L 147.002 256 Z M 308.144 256 L 199.861 316.539 L 199.861 351.798 L 364.996 256 L 308.144 256 Z"/><path fill="#04A2FF" d="M 270.392 255.832 L 199.861 295.263 L 199.861 216.401 L 270.392 255.832 Z"/><path fill="#8600EF" d="M 147.002 129.538 L 147.002 256 L 176.627 256 L 176.627 209.371 L 176.627 182.136 L 308.447 255.83 L 308.144 256 L 364.996 256 L 365 255.998 L 147.002 129.538 Z"/></g></g></svg>