<?xml version="1.0" encoding="UTF-8" standalone="no"?>
<svg
   height="1843.9966"
   viewBox="0 0 387.70835 377.56015"
   width="1893.1072"
   version="1.1"
   id="svg1"
   xml:space="preserve"
   xmlns="http://www.w3.org/2000/svg"
   xmlns:svg="http://www.w3.org/2000/svg"><defs
     id="defs1" /><g
     id="g6"
     transform="matrix(53.356896,0,0,53.356896,-12988.569,-10692.402)"><path
       id="path5"
       style="fill:#f9b000;fill-opacity:1;stroke:#000000;stroke-width:0"
       transform="matrix(0.2048,0,0,0.2048,0,-0.0488025)"
       d="m 1200.4067,996 7.6937,-3.5904 4.15,-8.25327 4.4297,8.16001 7.4139,3.68366 -7.8802,4.4297 -3.9634,7.414 -3.6837,-7.88025 z" /><path
       id="path5-3"
       style="fill:#f9b000;fill-opacity:1;stroke:#000000;stroke-width:0"
       d="m 243.42813,201.50641 0.72321,-0.3375 0.39011,-0.77582 0.4164,0.76705 0.69691,0.34627 -0.74074,0.4164 -0.37257,0.69693 -0.34627,-0.74075 z" /><path
       id="path5-3-9"
       style="fill:#f9b000;fill-opacity:1;stroke:#000000;stroke-width:0"
       d="m 244.36666,206.35758 0.72321,-0.3375 0.39011,-0.77582 0.4164,0.76705 0.69691,0.34627 -0.74074,0.4164 -0.37257,0.69693 -0.34627,-0.74075 z" /></g></svg>
