<svg xmlns="http://www.w3.org/2000/svg" xmlns:svg="http://www.w3.org/2000/svg" id="svg5" width="407.105" height="207.905" preserveAspectRatio="xMidYMid" version="1.1" viewBox="0.03 -351.387 41.648 130.688"><g id="g5" stroke-width=".094" transform="translate(-107.11866,-351.63355)"><path id="path1" fill="#eb7077" stroke="#eb7077" d="m 63.182,4.2 c 0.926,-1.575 2.13,-3.088 3.86,-3.83 0.71,-0.123 1.42,-0.061 2.13,-0.061 h 34.957 c -1.019,0.864 -2.007,1.76 -2.686,2.933 -1.791,2.934 -2.996,6.207 -4.107,9.48 -3.15,9.883 -5.343,20.042 -7.474,30.202 a 729.834,729.834 0 0 0 -2.748,13.835 c -2.656,15.07 -5.404,30.108 -8.832,45.023 -1.636,6.887 -3.304,13.773 -5.836,20.412 -1.174,2.749 -2.316,5.682 -4.57,7.72 -0.525,0.464 -1.05,1.05 -1.792,0.958 h -30.88 c -2.1,-0.062 -4.169,0.123 -6.269,-0.093 1.39,-1.08 2.625,-2.378 3.428,-3.922 2.316,-4.416 3.767,-9.202 5.157,-13.958 2.162,-7.658 3.89,-15.409 5.528,-23.16 1.019,-5.095 2.223,-10.16 2.964,-15.286 0.834,-5.713 2.1,-11.364 3.119,-17.046 1.606,-8.369 3.304,-16.737 5.188,-25.044 1.513,-6.485 3.057,-12.94 5.126,-19.27 1.02,-3.057 2.13,-6.083 3.737,-8.893 z"/><path id="path2" fill="#f6a2ad" stroke="#f6a2ad" d="m 104.13,0.309 c 0.895,0 1.79,-0.031 2.686,0 1.976,1.05 3.644,2.717 4.57,4.786 1.235,2.347 2.255,4.818 3.18,7.35 3.089,9.542 5.189,19.362 7.289,29.151 1.79,8.77 3.49,17.571 5.095,26.403 0.124,0.463 -0.03,1.112 0.587,1.235 -2.224,11.611 -4.416,23.253 -7.195,34.772 -1.514,6.207 -3.12,12.383 -5.404,18.374 -1.236,2.995 -2.502,6.268 -5.127,8.4 -1.667,0.37 -2.872,-0.896 -3.89,-2.039 -1.76,-2.254 -2.842,-4.91 -3.892,-7.566 -3.49,-9.51 -5.62,-19.423 -7.781,-29.305 -1.637,-7.69 -3.089,-15.44 -4.602,-23.16 -0.68,-3.923 -1.605,-7.783 -2.13,-11.704 -0.093,-0.062 -0.31,-0.186 -0.402,-0.247 a 729.834,729.834 0 0 1 2.748,-13.835 c 2.131,-10.16 4.324,-20.32 7.474,-30.201 1.111,-3.274 2.316,-6.547 4.107,-9.48 0.68,-1.174 1.667,-2.07 2.686,-2.934 z"/><path id="path3" fill="#eb7077" stroke="#eb7077" d="m 142.76,5.651 c 1.113,-2.13 2.471,-4.508 4.88,-5.311 12.26,-0.062 24.52,-0.031 36.779,-0.031 -1.143,1.142 -2.347,2.285 -3.12,3.736 -2.377,4.262 -3.767,8.987 -5.187,13.65 -3.644,12.846 -6.207,25.97 -8.647,39.094 -2.254,12.94 -4.663,25.878 -7.411,38.756 -1.42,6.484 -2.903,12.938 -4.786,19.33 -1.205,3.953 -2.47,7.937 -4.447,11.612 -0.958,1.667 -2.07,3.49 -3.891,4.354 -11.704,0.093 -23.439,0 -35.142,0.03 -0.649,0 -1.328,0 -1.977,-0.092 2.625,-2.13 3.891,-5.404 5.127,-8.4 2.285,-5.99 3.89,-12.166 5.404,-18.373 2.779,-11.519 4.971,-23.16 7.195,-34.772 2.686,-14.977 5.497,-29.954 9.079,-44.746 1.667,-6.392 3.273,-12.877 6.145,-18.837 z"/><path id="path4" fill="#f6a2ad" stroke="#f6a2ad" d="m 184.419,0.309 c 0.988,0 2.007,-0.031 2.995,0 1.606,0.834 2.749,2.254 3.768,3.705 1.667,2.656 2.717,5.652 3.798,8.585 2.563,7.875 4.478,15.966 6.238,24.056 2.347,10.901 4.385,21.864 6.392,32.826 0.494,2.625 0.988,5.28 1.297,7.937 l 0.463,0.463 c -1.111,1.544 -1.544,3.397 -2.161,5.157 -1.946,6.269 -3.212,12.754 -4.293,19.208 -0.833,5.064 -1.976,10.098 -3.551,14.977 -1.173,3.613 -2.594,7.195 -4.94,10.221 -1.113,1.452 -2.626,2.563 -4.293,3.304 -2.563,0.278 -4.077,-2.192 -5.312,-4.014 -2.563,-4.478 -3.952,-9.48 -5.435,-14.36 -4.879,-18.065 -8.06,-36.562 -11.487,-54.936 a 0.812,0.812 0 0 0 -0.433,-0.649 c 2.44,-13.124 5.003,-26.248 8.647,-39.094 1.42,-4.663 2.81,-9.388 5.188,-13.65 0.772,-1.451 1.976,-2.594 3.119,-3.736 z M 0.03,70.562 C 0.834,70.5 1.637,70.377 2.47,70.377 h 33.66 c 1.42,0.185 2.903,0.062 4.262,0.68 a 12.143,12.143 0 0 1 5.033,3.86 c 0.155,-0.093 0.433,-0.34 0.587,-0.464 -0.741,5.126 -1.945,10.19 -2.964,15.286 -1.637,7.751 -3.366,15.502 -5.528,23.16 -1.39,4.756 -2.841,9.542 -5.157,13.958 -0.803,1.544 -2.038,2.841 -3.428,3.922 -0.525,0.093 -0.926,-0.278 -1.359,-0.556 -1.451,-0.926 -2.285,-2.532 -3.18,-3.983 C 20.165,116.605 19.702,105.951 17.077,95.884 15.749,90.851 14.112,85.848 11.704,81.216 10.221,78.436 8.4,75.781 6.022,73.65 4.262,72.23 2.223,71.087 0.031,70.562 Z"/><path id="path5" fill="#eb7077" stroke="#eb7077" d="m 212.088,73.774 c 1.945,-2.193 4.848,-3.582 7.782,-3.459 h 25.322 c 3.52,0.062 7.071,-0.123 10.592,0.093 -1.05,0.71 -2.316,0.988 -3.428,1.575 -3.86,1.76 -7.164,4.693 -9.264,8.368 -3.366,5.868 -4.54,12.6 -5.528,19.208 -0.988,6.485 -0.957,13.186 -3.057,19.486 -1.42,4.416 -3.582,8.862 -7.319,11.765 -11.61,0.124 -23.222,0.031 -34.802,0.062 -0.772,0 -1.513,0.03 -2.254,-0.124 1.667,-0.74 3.18,-1.852 4.292,-3.304 2.347,-3.026 3.768,-6.608 4.941,-10.221 1.575,-4.88 2.718,-9.913 3.551,-14.977 1.081,-6.454 2.347,-12.94 4.293,-19.208 0.617,-1.76 1.05,-3.613 2.161,-5.157 0.927,-1.359 1.544,-2.934 2.718,-4.107 z"/></g></svg>